<svg xmlns="http://www.w3.org/2000/svg" width="400" height="400" viewBox="0 0 400 400">
  <defs>
    <linearGradient id="grad" x1="0%" y1="0%" x2="100%" y2="100%">
      <stop offset="0%" style="stop-color:#10B981"/>
      <stop offset="100%" style="stop-color:#06B6D4"/>
    </linearGradient>
  </defs>
  <rect fill="url(#grad)" width="400" height="400"/>
  <g transform="translate(200, 170)" fill="none" stroke="white" stroke-width="3" stroke-opacity="0.9">
    <rect x="-55" y="-40" width="45" height="35" rx="5"/>
    <path d="M-55,0 L-65,15 L-45,0"/>
    <rect x="10" y="-25" width="45" height="35" rx="5"/>
    <path d="M55,15 L65,30 L45,15"/>
    <line x1="-25" y1="-25" x2="-25" y2="-10" stroke-width="2"/>
    <line x1="-35" y1="-25" x2="-35" y2="-10" stroke-width="2"/>
    <line x1="-45" y1="-25" x2="-45" y2="-10" stroke-width="2"/>
    <line x1="25" y1="-10" x2="25" y2="5" stroke-width="2"/>
    <line x1="35" y1="-10" x2="35" y2="5" stroke-width="2"/>
    <line x1="45" y1="-10" x2="45" y2="5" stroke-width="2"/>
  </g>
  <text x="200" y="280" font-family="system-ui, sans-serif" font-size="24" font-weight="600" fill="white" fill-opacity="0.9" text-anchor="middle">토론회</text>
  <text x="200" y="310" font-family="system-ui, sans-serif" font-size="14" fill="white" fill-opacity="0.6" text-anchor="middle">주제별 토론회</text>
</svg>
